<svg xmlns="http://www.w3.org/2000/svg" width="40" height="40" viewBox="3 3 34 34">
    <g fill="none" fill-rule="evenodd">
        <g>
            <g transform="translate(-125 -4037) translate(125 4037)">
                <circle cx="20" cy="20" r="16.7" fill="#FFF" stroke="#F5F5F6"/>
                <g fill="#4267B2" fill-rule="nonzero">
                    <g>
                        <path d="M15.747 0H.919C.411 0 0 .412 0 .92v14.827c0 .508.412.92.92.92h7.983V10.22H6.738V7.7h2.165V5.842c0-2.153 1.314-3.325 3.235-3.325.92 0 1.71.069 1.94.1v2.25h-1.324c-1.045 0-1.247.496-1.247 1.225v1.607h2.499l-.326 2.522h-2.173v6.446h4.24c.508 0 .92-.412.92-.92V.919c0-.508-.412-.919-.92-.919z" transform="translate(10 10) translate(1.667 1.667)"/>
                    </g>
                </g>
            </g>
        </g>
    </g>
</svg>