<svg xmlns="http://www.w3.org/2000/svg" width="40" height="40" viewBox="0 0 40 40">
    <g fill="none" fill-rule="evenodd">
        <g>
            <g transform="translate(-178 -4037) translate(178 4037)">
                <circle cx="20" cy="20" r="19.5" fill="#FFF" stroke="#EAEAEC"/>
                <g fill="#03AAF4">
                    <g>
                        <path d="M24 2.308c-.892.392-1.843.651-2.835.778 1.02-.61 1.799-1.566 2.165-2.72-.951.567-2.002.967-3.12 1.191C19.305.596 18.02 0 16.614 0 13.893 0 11.7 2.211 11.7 4.921c0 .39.033.765.114 1.122C7.721 5.845 4.103 3.883 1.67.897c-.425.736-.673 1.58-.673 2.487 0 1.704.877 3.214 2.185 4.089-.79-.015-1.566-.244-2.223-.606v.054c0 2.391 1.706 4.377 3.942 4.834-.4.11-.837.162-1.29.162-.315 0-.633-.018-.932-.083.638 1.948 2.447 3.38 4.598 3.427-1.674 1.31-3.8 2.099-6.1 2.099-.404 0-.791-.018-1.178-.068C2.18 18.697 4.763 19.5 7.548 19.5c9.054 0 14.004-7.5 14.004-14.001 0-.217-.008-.427-.018-.636.977-.693 1.797-1.559 2.466-2.555z" transform="translate(8 8) translate(0 2)"/>
                    </g>
                </g>
            </g>
        </g>
    </g>
</svg>
