<svg xmlns="http://www.w3.org/2000/svg" width="40" height="40" viewBox="0 0 40 40">
    <g fill="none" fill-rule="evenodd">
        <g>
            <g transform="translate(-72 -4037) translate(72 4037)">
                <circle cx="20" cy="20" r="19.5" fill="#FFF" stroke="#EAEAEC"/>
                <g fill="red" fill-rule="nonzero">
                    <g>
                        <path d="M23.505 2.664C23.23 1.636 22.418.825 21.39.548 19.512.034 12 .034 12 .034s-7.512 0-9.39.495C1.6.805.77 1.636.493 2.664 0 4.542 0 8.436 0 8.436s0 3.915.494 5.773c.277 1.028 1.087 1.838 2.116 2.115 1.897.514 9.39.514 9.39.514s7.512 0 9.39-.494c1.028-.277 1.839-1.087 2.116-2.115C24 12.35 24 8.456 24 8.456s.02-3.914-.495-5.792zm-13.897 9.37V4.838l6.247 3.598-6.247 3.598z" transform="translate(8 8) translate(0 4)"/>
                    </g>
                </g>
            </g>
        </g>
    </g>
</svg>
